PathFileType	4	(X/Y/Z)	OpenSim_Sub10_CSStiffKnee_Gyro.trc
DataRate	CameraRate	NumFrames	NumMarkers	Units	OrigDataRate	OrigDataStartFrame	OrigNumFrames
100	100	27	8	m	100	1022	8174
Frame#	Time	torso_imu_offset_imu	pelvis_imu_offset_imu	tibia_r_imu_offset_imu	femur_r_imu_offset_imu	tibia_l_imu_offset_imu	femur_l_imu_offset_imu	toes_r_imu_offset_imu	toes_l_imu_offset_imu
				X1	Y1	Z1	X2	Y2	Z2	X3	Y3	Z3	X4	Y4	Z4	X5	Y5	Z5	X6	Y6	Z6	X7	Y7	Z7	X8		Y8	Z8	

1022	10.21000000	0.19258593	0.02718260	0.21950138	0.73570376	-0.01426179	-0.06389265	0.36246903	-0.08096549	0.04088943	-0.09958444	-0.53737740	-0.00530562	0.50806125	0.07339039	1.24163447	1.01842098	0.18337063	0.66295261	1.71186380	-2.30798709	1.35183150	0.23968766	-1.28955717	0.02055616
1023	10.22000000	0.31177483	0.17134170	0.26595916	0.90849106	0.05233746	-0.03460068	0.49360703	-0.30652207	-0.59456566	0.11923599	-0.50885062	-0.02318943	0.65376960	0.12600577	1.30769898	1.09058699	0.29695038	0.58167282	0.33786493	-5.14659864	1.58505980	0.28433579	-1.43523244	-0.06519072
1024	10.23000000	0.44209641	0.25599271	0.32605430	0.94540161	0.20476480	0.02357483	0.90035286	-0.60633786	-1.79763694	0.27290752	-0.40594411	-0.18936248	0.74821317	0.15773709	1.39517469	1.09232852	0.38662515	0.54239013	0.45431605	-4.02494799	0.29778153	0.34873673	-1.61654298	-0.19437983
1025	10.24000000	0.49274493	0.34199223	0.43047121	0.79532801	0.53090382	0.12464750	2.52477221	-1.62979398	-2.97269469	0.40353969	-0.38971637	-0.47163894	0.78638320	0.20429456	1.48763844	0.99360457	0.40460654	0.48912095	1.65703753	-2.45336852	-1.30653490	0.41940605	-1.90832343	-0.34395905
1026	10.25000000	0.48020363	0.34751243	0.57378977	0.45062600	0.67156139	0.17699180	0.79536545	-2.36151792	-2.92124860	0.58728677	-0.95458958	-0.65811834	0.79724835	0.23594682	1.58617936	0.78153853	0.34861808	0.27678554	-2.32747468	-3.51874360	-0.86516935	0.45798129	-2.30256577	-0.42806952
1027	10.26000000	0.41056372	0.16694711	0.61313235	0.24695344	0.35788044	0.13183870	-2.20100138	-0.82619051	-1.38335233	1.01811447	-1.36911042	-0.59507835	0.88260849	0.22791032	1.65765051	0.63625876	0.21371982	0.09109982	1.94651041	-1.25115036	0.33342496	0.49531203	-2.70908982	-0.43858954
1028	10.27000000	0.11482645	0.16957152	0.49069297	0.31700352	-0.07901908	0.13451201	-0.47507384	1.40708824	-0.76942150	1.33387570	-0.55186057	-0.43214179	0.91340778	0.17697730	1.72713063	0.56024681	0.17908556	-0.05830524	2.61703125	-0.09859394	-0.00641543	0.63875978	-3.05347220	-0.42094416
1029	10.28000000	-0.04092717	0.33720996	0.37847263	0.49876049	-0.40768287	0.22221620	1.92965946	1.65809276	-1.48324933	1.42852825	0.50012177	-0.17889003	0.90594325	0.14000421	1.84431116	0.60930884	0.36937791	-0.24189232	-1.01670837	-0.76174989	-0.18559202	0.72162319	-3.38406487	-0.38156082
1030	10.29000000	0.06858501	0.31878052	0.31790577	0.67058483	-0.53627195	0.30099699	2.17846377	0.33197654	-2.09116652	1.37547990	0.75567813	0.00895541	1.08518656	0.10274151	1.95147050	0.71889564	0.59929555	-0.42987463	1.23238952	-0.01069150	0.01795744	0.50873174	-3.70628546	-0.23290717
1031	10.30000000	0.16850171	0.22072494	0.29662492	0.70454384	-0.46244871	0.26167496	2.05895733	-0.66591175	-2.21224064	1.16351541	0.57622543	-0.08542722	1.09510721	0.00136688	1.98846751	0.81407968	0.69167317	-0.56340620	0.23402491	0.13369482	-0.03069656	0.65513418	-3.99392695	-0.04906074
1032	10.31000000	0.38561771	0.13744938	0.34703761	0.66169317	-0.29749111	0.15417282	2.17358006	-1.00437267	-2.04259900	0.90203337	0.26418598	-0.36260164	0.98286030	-0.15853718	1.98973991	0.89849334	0.68771169	-0.62078326	0.09332607	0.03047388	-0.12927657	0.26841613	-4.09900110	0.20125015
1033	10.32000000	0.67778055	0.14049582	0.31650618	0.65335204	-0.10785086	0.07329493	1.53971560	-1.00467927	-1.52760981	0.42172235	-0.16553596	-0.80183882	0.84086921	-0.23946935	2.00767779	0.90202122	0.67878144	-0.68083736	0.69897129	0.07906482	-0.20808157	0.47570211	-4.11143842	0.40748325
1034	10.33000000	0.80625259	0.20714855	0.24435976	0.68649130	0.07611918	0.04070513	0.32236041	-0.70683683	-0.51014178	-0.33419283	-0.64844194	-1.43798751	0.40601731	-0.33054856	2.03316933	0.85852696	0.71382378	-0.80939396	0.28773535	0.04044660	-0.19826752	1.33696829	-3.88553165	0.65988238
1035	10.34000000	0.84405639	0.23387599	0.20017322	0.75345677	0.24408970	0.04374904	-0.12976470	-0.43356516	0.32262886	-1.16337583	-0.97742849	-2.03508904	-0.24212413	-0.43979809	2.02370768	0.84341313	0.75962943	-1.03909422	0.41918858	0.02930624	-0.16803446	-0.04130633	-3.54355465	1.02495021
1036	10.35000000	0.80534514	0.22774204	0.12838299	0.83843622	0.35586035	0.04824247	0.64182809	-0.25977540	0.20814704	-1.79770710	-1.00760429	-2.39356744	-0.85384993	-0.47507268	1.97289518	0.90450257	0.71658795	-1.27492506	0.22967810	-0.03943233	-0.09324985	-0.05469343	-3.41174635	1.10322036
1037	10.36000000	0.73855302	0.22936481	0.07253732	0.89266653	0.38435622	0.04214241	0.97945275	-0.15899906	-0.53615736	-2.02953089	-0.68057473	-2.47637218	-1.25593090	-0.40858755	1.96958292	0.95807948	0.58627687	-1.48829421	0.12111393	-0.09531612	-0.01692297	0.75305363	-2.80570339	1.11515776
1038	10.37000000	0.76610026	0.21768921	0.07392504	0.88610984	0.33196129	0.01362318	0.20080261	-0.04854274	-0.83851835	-1.82859961	-0.11527159	-2.24754130	-1.60565009	-0.39332781	2.08269961	0.96117758	0.41606626	-1.62082477	0.09666885	-0.13519242	0.01927311	0.58362147	-2.21776526	1.16829720
1039	10.38000000	0.86006807	0.16068570	0.12254401	0.82316924	0.22899187	-0.04142780	-0.05652608	-0.15461748	-0.35249079	-1.34394381	0.33320117	-1.90990386	-1.71209244	-0.42958682	2.21295896	0.90001789	0.24479354	-1.72786411	0.08181838	-0.14419252	0.03946458	0.30305136	-1.62492644	1.06262346
1040	10.39000000	0.83482161	0.10803558	0.15427709	0.72921585	0.10162944	-0.10528929	0.35407907	-0.23281835	0.17594899	-0.70399031	0.53945068	-1.61660649	-1.53592928	-0.34421273	2.22343663	0.73498398	0.15467231	-1.69535736	0.09072599	-0.13193899	0.05552580	0.11102048	-0.83796788	1.09965983
1041	10.40000000	0.71526083	0.08949977	0.15679215	0.62152190	-0.03365920	-0.16967279	0.58458067	-0.07703509	0.19711676	0.01809831	0.56776043	-1.35756521	-1.16152302	-0.34070106	1.90591931	0.47991849	0.13993256	-1.60429504	0.19440751	-0.13097394	0.08896365	0.53042885	-0.12951861	0.98158918
1042	10.41000000	0.65905691	0.06060707	0.16053159	0.52454479	-0.13359776	-0.24357302	0.54159683	-0.17910007	-0.01638233	0.64280689	0.50012048	-1.15726650	-0.03587832	-0.38947800	1.17716180	0.11060191	0.10843845	-1.44874544	0.15796017	-0.14577240	0.15783145	0.52163288	0.32840611	0.80901160
1043	10.42000000	0.69894913	0.03067648	0.15385311	0.48905681	-0.16426119	-0.30562481	0.33071782	-0.38470021	-0.09223197	1.02659340	0.39918880	-1.06283078	1.25076483	-0.35912358	0.30465604	-0.30626006	0.04687118	-1.15481337	0.04915750	-0.16468763	0.21455266	0.18400662	1.11957259	0.66198429
1044	10.43000000	0.79746815	0.01096573	0.11708432	0.52013394	-0.11883434	-0.34473815	-0.05660089	-0.24065995	-0.04730325	1.19627369	0.28985404	-1.12787480	1.99493810	-0.20020918	-0.43884482	-0.58534150	-0.02091343	-0.82405741	0.00162972	-0.17241786	0.21709472	0.25882361	2.10527774	0.47540668
1045	10.44000000	0.92279384	-0.02410599	0.07024624	0.58910341	-0.05144915	-0.36439261	-0.59361162	-0.04822500	0.02370391	1.19989892	0.17373377	-1.26152192	2.29003814	-0.09920009	-1.00858917	-0.73345344	-0.01049931	-0.62424238	0.01849555	-0.17875787	0.18268665	0.47340142	2.76970018	0.39564346
1046	10.45000000	1.09286460	-0.08410285	0.00996187	0.66274060	0.00597366	-0.38394944	-0.74247941	-0.07138438	0.07697876	1.10252659	0.04231334	-1.39934500	2.35237929	-0.15496216	-1.46021072	-0.67712715	-0.02364358	-0.47407687	0.00447126	-0.17609886	0.15513821	0.60326107	3.28827361	0.39970073
1047	10.46000000	1.21780103	-0.14266669	-0.05605533	0.70628461	0.03872244	-0.39435175	-0.55575116	-0.08550650	0.02176269	0.98670372	-0.07206390	-1.52574847	2.30883607	-0.16029011	-1.89416024	-0.48754489	-0.03172628	-0.37704348	-0.04400097	-0.15167946	0.15270273	0.67158494	3.72876514	0.44002757
1048	10.47000000	1.20042556	-0.13788767	-0.09939131	0.72855432	0.06657142	-0.39641906	-0.55651063	-0.08849554	-0.07856448	0.85954948	-0.12005120	-1.61044878	2.17177173	-0.08669971	-2.31859712	-0.28494371	0.04138325	-0.38005369	-0.06062587	-0.11539754	0.13788803	0.71421268	4.09577634	0.47385320
